<svg width="880" height="275" viewBox="0 0 880 275" fill="none" xmlns="http://www.w3.org/2000/svg">
<path d="M91 194C48 194 18 166 18 128C18 90 48 61 91 61C115 61 136 70 151 86L134 102C122 90 109 85 92 85C64 85 43 103 43 128C43 153 64 170 93 170C106 170 118 167 130 160V141H90V119H154V172C138 186 115 194 91 194ZM204 64H233L287 191H260L247 160H190L178 191H151L204 64ZM238 137L219 91L199 137H238ZM313 64H338V191H313V64ZM397 64H426L480 191H453L440 160H383L371 191H344L397 64ZM431 137L412 91L392 137H431ZM492 191H603V213H492V191ZM625 64H650V168H715V191H625V64ZM760 64H789L843 191H816L803 160H746L734 191H707L760 64ZM794 137L775 91L755 137H794ZM867 64H936C965 64 982 77 982 98C982 111 975 121 964 127C979 132 988 144 988 160C988 181 969 191 937 191H867V64ZM933 116C949 116 957 110 957 99C957 88 949 84 933 84H892V116H933ZM938 171C955 171 963 165 963 154C963 143 955 138 938 138H892V171H938Z" fill="#050505" transform="translate(-4 0)"/>
<path d="M792 72H843M792 117H839M792 165H846" stroke="#6B6B6B" stroke-width="6" stroke-linecap="round" opacity="0.75"/>
</svg>