<svg width="512" height="512" viewBox="0 0 512 512" fill="none" xmlns="http://www.w3.org/2000/svg">
<path fill="#050505" d="M87.8 252.8c0-17.1 13.1-29.2 31.1-29.2 10.2 0 18.8 3.3 24.8 9.6l-7.8 7.6c-4.7-4.6-10-6.8-16.4-6.8-11.5 0-19.6 7.8-19.6 18.8s8.1 18.8 19.4 18.8c5.2 0 10-1.2 14.4-4.1v-10.9h-15.3v-10.3h26.8v26.9c-7.1 5.8-16.9 8.9-26.7 8.9-17.8 0-30.7-12.2-30.7-29.3Zm92.8-28.2h11.5l25.5 56.6h-12.7l-5.6-13.1h-26.8l-5.5 13.1h-12.4l26-56.6Zm14.5 33.8-9.2-21.4-9.1 21.4h18.3Zm34.4-33.8h12v56.6h-12v-56.6Zm49.6 0h11.5l25.5 56.6h-12.7l-5.6-13.1H271l-5.5 13.1h-12.4l26-56.6Zm14.5 33.8-9.2-21.4-9.1 21.4h18.3Zm30.1 33.9h64v7.7h-64v-7.7Zm77.6-67.7h12v46.2h28.6v10.4h-40.6v-56.6Zm75.4 0h11.5l25.5 56.6H501l-5.6-13.1h-26.8l-5.5 13.1h-12.4l26-56.6Zm14.5 33.8L482 237l-9.1 21.4h18.3Zm34.4-33.8h26.2c13.5 0 21.1 5.7 21.1 14.6 0 5.6-2.8 10.1-7.7 12.6 6.5 2 10.3 6.9 10.3 13.7 0 9.8-8 15.7-22.9 15.7h-27v-56.6Zm24.7 23.4c6.8 0 10.5-2.5 10.5-7.5s-3.7-7.4-10.5-7.4h-12.8V248h12.8Zm1.5 24.6c7.4 0 11.4-2.4 11.4-7.9 0-5.3-4-7.8-11.4-7.8h-14.3v15.7h14.3Z" transform="translate(-75 0)"/>
</svg>